<!DOCTYPE svg PUBLIC "-//W3C//DTD SVG 1.1//EN" "http://www.w3.org/Graphics/SVG/1.1/DTD/svg11.dtd">
<!-- Uploaded to: SVG Repo, www.svgrepo.com, Transformed by: SVG Repo Mixer Tools -->
<svg width="800px" height="800px" viewBox="0 0 24 24" xmlns="http://www.w3.org/2000/svg" fill="#8d93a5">
<g id="SVGRepo_bgCarrier" stroke-width="0"/>
<g id="SVGRepo_tracerCarrier" stroke-linecap="round" stroke-linejoin="round"/>
<g id="SVGRepo_iconCarrier">
<path d="M19,3H5A2,2,0,0,0,3,5V19a2,2,0,0,0,2,2H19a2,2,0,0,0,2-2V5A2,2,0,0,0,19,3ZM10,19a1,1,0,1,1,1-1A1,1,0,0,1,10,19Zm4,0a1,1,0,1,1,1-1A1,1,0,0,1,14,19Zm4,0a1,1,0,1,1,1-1A1,1,0,0,1,18,19Zm1-4H5V5H19ZM17,9H12V7h5Zm0,4H9V11h8Z" fill-rule="evenodd"/>
<rect width="24" height="24" fill="none"/>
</g>
</svg>