<?xml version="1.0" encoding="UTF-8"?>
<svg version="1.1" xmlns="http://www.w3.org/2000/svg" width="512" height="512">
<path d="M0 0 C2.13123226 -0.37604749 2.13123226 -0.37604749 4.83201599 -0.37752342 C5.85888299 -0.38534666 6.88574999 -0.39316991 7.94373417 -0.40123022 C9.08048305 -0.39453805 10.21723192 -0.38784589 11.38842773 -0.38095093 C13.1897209 -0.38797089 13.1897209 -0.38797089 15.02740383 -0.39513266 C18.37126394 -0.40506237 21.71462201 -0.40144293 25.05845213 -0.39217401 C28.66041554 -0.38541054 32.26233378 -0.39585125 35.86428833 -0.40411377 C42.92467001 -0.41748233 49.98495624 -0.41455953 57.04534173 -0.40587585 C62.78136497 -0.39911195 68.51736137 -0.39817696 74.25338745 -0.4014473 C75.06849523 -0.401907 75.88360301 -0.40236669 76.72341102 -0.40284032 C78.3790745 -0.40379946 80.03473797 -0.4047721 81.69040143 -0.4057581 C97.23052687 -0.41432114 112.77059929 -0.40446356 128.31071603 -0.388357 C141.65671485 -0.37495298 155.0026354 -0.37728082 168.34863281 -0.39111328 C183.83159328 -0.40715299 199.31450724 -0.41349708 214.79747486 -0.40427649 C216.44718742 -0.4033208 218.09689998 -0.40237769 219.74661255 -0.4014473 C220.96427808 -0.40075306 220.96427808 -0.40075306 222.20654291 -0.40004479 C227.93839629 -0.39745006 233.67022027 -0.40183626 239.40206909 -0.40888596 C246.38339778 -0.41728332 253.36462523 -0.41505816 260.34594226 -0.39904372 C263.9107297 -0.39113708 267.47534809 -0.38810977 271.04013443 -0.39799118 C274.89737683 -0.40852187 278.75433993 -0.39598324 282.61157227 -0.38095093 C283.74832114 -0.38764309 284.88507002 -0.39433526 286.05626583 -0.40123022 C287.08313283 -0.39340697 288.10999983 -0.38558373 289.16798401 -0.37752342 C290.50487195 -0.37679284 290.50487195 -0.37679284 291.86876774 -0.37604749 C292.57207438 -0.25195182 293.27538103 -0.12785615 294 0 C296.57190737 3.85786105 296.28420281 7.02969314 296.26742554 11.50280762 C296.27195665 12.38121795 296.27648776 13.25962829 296.28115618 14.16465712 C296.29385618 17.11958992 296.29217622 20.07433973 296.29052734 23.02929688 C296.29650901 25.14307392 296.30331371 27.25684877 296.31088257 29.37062073 C296.32858439 35.12047277 296.33323965 40.87026533 296.33451414 46.62014198 C296.33641034 51.41421437 296.34376447 56.20827281 296.35085833 61.00233984 C296.367155 72.30804492 296.37202603 83.61371813 296.37060547 94.91943359 C296.36940299 106.59779102 296.3905231 118.27596394 296.4220928 129.95427465 C296.44820401 139.96874538 296.45897497 149.98315564 296.45769465 159.99766016 C296.45718359 165.98430009 296.46294613 171.97077605 296.48405075 177.9573822 C296.50334697 183.58477399 296.50361688 189.21184392 296.48901749 194.83924675 C296.4869177 196.9085175 296.49169931 198.97780796 296.5037384 201.04704475 C296.51907156 203.86414479 296.50996245 206.6801183 296.49447632 209.49719238 C296.50476344 210.32296138 296.51505057 211.14873038 296.52564943 211.99952269 C296.45792429 217.54452041 296.45792429 217.54452041 294.28201735 219.70881093 C291.61302166 221.21895635 290.04207728 221.37582888 286.98994446 221.37752342 C285.97426234 221.38534666 284.95858023 221.39316991 283.91211987 221.40123022 C282.7981247 221.39453805 281.68412954 221.38784589 280.53637695 221.38095093 C279.35155133 221.3856309 278.16672571 221.39031087 276.94599628 221.39513266 C273.65611858 221.40504033 270.36675342 221.40145854 267.07690668 221.39217401 C263.52947364 221.38539648 259.98208595 221.39585829 256.43466187 221.40411377 C249.48484197 221.41746719 242.53511917 221.41456623 235.58529544 221.40587585 C229.93800989 221.39910603 224.29075158 221.39817954 218.64346313 221.4014473 C217.43872627 221.40213684 217.43872627 221.40213684 216.20965129 221.40284032 C214.57815034 221.40379948 212.9466494 221.40477212 211.31514847 221.4057581 C196.00958463 221.4143167 180.70407465 221.40447049 165.39851964 221.388357 C152.26011892 221.37495338 139.12179772 221.37728134 125.98339844 221.39111328 C110.73332885 221.40716079 95.48330649 221.41349269 80.23322964 221.40427649 C78.60766539 221.40332082 76.98210113 221.40237771 75.35653687 221.4014473 C74.1567631 221.40075306 74.1567631 221.40075306 72.93275148 221.40004479 C67.29098174 221.39745241 61.64924191 221.40183123 56.00747681 221.40888596 C49.13385076 221.41729196 42.26032751 221.41503984 35.38671327 221.39904372 C31.87837073 221.39114881 28.37019971 221.38809001 24.86185837 221.39799118 C21.06234918 221.40855206 17.26312207 221.39595866 13.46362305 221.38095093 C12.34962789 221.38764309 11.23563272 221.39433526 10.08788013 221.40123022 C9.07219802 221.39340697 8.0565159 221.38558373 7.01005554 221.37752342 C5.69415955 221.37679284 5.69415955 221.37679284 4.3516798 221.37604749 C1.44604371 220.91141912 0.07892144 220.06782279 -2 218 C-2.39584287 215.04297658 -2.5313408 212.4563807 -2.49447632 209.49719238 C-2.49930515 208.61878205 -2.50413398 207.74037171 -2.50910914 206.83534288 C-2.52041678 203.88016409 -2.50303324 200.9258436 -2.48583984 197.97070312 C-2.4879848 195.85692612 -2.49186113 193.74315026 -2.49734497 191.62937927 C-2.50705912 185.87942328 -2.4917091 180.1297766 -2.47143888 174.37985802 C-2.45390526 168.37144686 -2.45739224 162.36304578 -2.4581604 156.35461426 C-2.45628583 146.26321215 -2.43890083 136.17193013 -2.41162109 126.08056641 C-2.38016867 114.40225529 -2.36962482 102.72407576 -2.3710922 91.04572535 C-2.37231171 79.82611414 -2.3621104 68.60654593 -2.34550858 57.38694763 C-2.33843536 52.60550094 -2.334781 47.82406947 -2.33372116 43.0426178 C-2.33171622 37.41528039 -2.31953875 31.78805404 -2.29938889 26.16075325 C-2.2935332 24.09149416 -2.2910893 22.0222223 -2.29224396 19.95295525 C-2.29322119 17.1361202 -2.28195542 14.31959905 -2.26742554 11.50280762 C-2.27052274 10.67703862 -2.27361995 9.85126962 -2.276811 9.00047731 C-2.24376897 5.14207732 -2.1909792 3.28646881 0 0 Z M31.27849996 27.34665138 C29.29439454 29.91248483 29.62217183 32.14358636 29.61904907 35.34559631 C29.6143691 35.99194973 29.60968913 36.63830315 29.60486734 37.30424303 C29.59288398 39.47395101 29.60238699 41.64303127 29.61181641 43.81274414 C29.60775221 45.36657582 29.60241118 46.92040461 29.59588623 48.47422791 C29.58218983 52.69726221 29.5875205 56.92007706 29.59702349 61.14311528 C29.60460673 65.55712183 29.59757833 69.97110931 29.59286499 74.38511658 C29.58740411 81.79722476 29.59460836 89.20924331 29.60888672 96.62133789 C29.62521991 105.19936393 29.61992125 113.77717614 29.6034075 122.35519701 C29.58980926 129.71235904 29.58786463 137.06945657 29.59572351 144.4266271 C29.60040843 148.8242137 29.60100239 153.22169967 29.59111404 157.61927986 C29.58247055 161.75203439 29.58841799 165.88451219 29.60579681 170.01723671 C29.60977547 171.53703603 29.60860417 173.0568585 29.60200882 174.57664871 C29.59385719 176.64521308 29.60403565 178.71288071 29.61904907 180.78138733 C29.62018015 181.94079362 29.62131123 183.10019991 29.62247658 184.29473972 C29.80935067 185.63384356 29.80935067 185.63384356 30 187 C33.96841706 189.64561138 37.39030054 189.2774163 41.99633789 189.25396729 C42.92783441 189.25708727 43.85933092 189.26020725 44.8190546 189.26342177 C47.95365205 189.27142622 51.08805722 189.26506858 54.22265625 189.25878906 C56.46450922 189.26149784 58.70636129 189.26505813 60.94821167 189.26940918 C67.04723658 189.27854895 73.14619405 189.27498238 79.24522018 189.26865101 C85.61799048 189.26359923 91.99075487 189.26828017 98.36352539 189.27142334 C109.75314739 189.27529889 121.14273505 189.26907054 132.53235018 189.25890467 C142.86370443 189.2499689 153.19501375 189.25152087 163.52636719 189.26074219 C175.51766233 189.27144005 187.50893016 189.275432 199.50023174 189.26951766 C205.85011055 189.26639422 212.19995837 189.26599886 218.54983521 189.27259064 C224.51859759 189.2783536 230.48727483 189.27438647 236.45602798 189.26280212 C238.65107201 189.26014991 240.84612317 189.26093014 243.0411644 189.26532745 C246.02876151 189.2707622 249.01608275 189.26397397 252.00366211 189.25396729 C253.3181891 189.26065945 253.3181891 189.26065945 254.65927219 189.26748681 C259.62474419 189.2420923 259.62474419 189.2420923 264 187 C264.45801075 184.1700462 264.45801075 184.1700462 264.38095093 180.78138733 C264.38797089 179.81419719 264.38797089 179.81419719 264.39513266 178.82746786 C264.40714239 176.65698894 264.39760272 174.4871345 264.38818359 172.31665039 C264.39224671 170.76458872 264.39758712 169.21252995 264.40411377 167.66047668 C264.4178254 163.43731615 264.41247267 159.21437474 264.40297651 154.99121022 C264.39539841 150.57766569 264.40242049 146.16414033 264.40713501 141.75059509 C264.41259855 134.33670675 264.40538591 126.92290796 264.39111328 119.5090332 C264.37479161 110.93161591 264.38006932 102.35441258 264.3965925 93.77700049 C264.41019754 86.42069224 264.41213166 79.06444849 264.40427649 71.70813173 C264.39959378 67.31105729 264.39899135 62.91408348 264.40888596 58.51701546 C264.4175389 54.38262968 264.41156453 50.24852021 264.39420319 46.11416435 C264.3902291 44.59478591 264.39138811 43.0753843 264.39799118 41.55601501 C264.406161 39.48555927 264.39594181 37.4159949 264.38095093 35.34559631 C264.37981985 34.185813 264.37868877 33.02602968 264.37752342 31.83110142 C263.94735453 28.60520422 263.49948196 27.95523133 261 26 C257.93396876 25.7048345 255.07101946 25.59562552 252.00366211 25.61904907 C251.07216559 25.6143691 250.14066908 25.60968913 249.1809454 25.60486734 C246.04626851 25.59286036 242.91202421 25.60239688 239.77734375 25.61181641 C237.53548934 25.60775324 235.29363693 25.60241281 233.05178833 25.59588623 C226.95273582 25.58217651 220.85383507 25.58752639 214.75477982 25.59702349 C208.38200715 25.60460116 202.00924777 25.59757975 195.63647461 25.59286499 C184.24683543 25.58705165 172.85727355 25.59639418 161.46764982 25.611643 C151.1362765 25.62504667 140.8050043 25.62271872 130.47363281 25.60888672 C118.48232896 25.59283991 106.49108658 25.58685198 94.49976826 25.59572351 C88.14987573 25.60040868 81.80005289 25.60100173 75.45016479 25.59111404 C69.48136308 25.58246955 63.51275296 25.58842022 57.54397202 25.60579681 C55.34892979 25.60977513 53.15387153 25.60860477 50.9588356 25.60200882 C47.97111616 25.59385636 44.98401738 25.60403854 41.99633789 25.61904907 C40.6818109 25.60901082 40.6818109 25.60901082 39.34072781 25.59876978 C35.02101346 25.50623825 35.02101346 25.50623825 31.27849996 27.34665138 Z " fill="#000000" transform="translate(109,215)"/>
<path d="M0 0 C1.18154663 -0.00430527 1.18154663 -0.00430527 2.38696289 -0.00869751 C4.05127685 -0.01073772 5.71561481 -0.00521082 7.37988281 0.00732422 C9.92827947 0.02337941 12.47509021 0.00747506 15.0234375 -0.01171875 C16.6406285 -0.00973631 18.25781852 -0.00589261 19.875 0 C20.63756104 -0.00607269 21.40012207 -0.01214539 22.18579102 -0.0184021 C27.37634895 0.05064944 27.37634895 0.05064944 29.63896465 1.45296478 C31.62613715 4.43015742 31.34692499 7.45508528 31.3117218 10.91418457 C31.31569621 11.68642254 31.31967061 12.45866052 31.32376546 13.25429964 C31.33341404 15.85005715 31.32155511 18.44527313 31.30981445 21.04101562 C31.31224158 22.89863794 31.31596012 24.75625895 31.32087708 26.61387634 C31.33030058 31.66546136 31.32084838 36.71685313 31.30754495 41.76842308 C31.29624873 47.04813042 31.30033654 52.327828 31.30229187 57.60754395 C31.30317543 66.47488573 31.29208159 75.34215115 31.27368164 84.20947266 C31.25251309 94.46996358 31.24900378 104.73034259 31.2552436 114.99085093 C31.26093299 124.8499897 31.25529661 134.70908896 31.24407005 144.56822205 C31.23941843 148.76912668 31.23855265 152.97000719 31.2406559 157.1709137 C31.24253584 162.11536319 31.23445758 167.05969836 31.2185955 172.00412178 C31.21434325 173.82182403 31.21350839 175.63953786 31.21628571 177.45724297 C31.21949466 179.93251871 31.21045837 182.4074501 31.19819641 184.88269043 C31.2038654 185.96959695 31.2038654 185.96959695 31.20964891 187.07846117 C31.17736621 190.74548517 31.03069471 192.25864543 28.9375 195.3984375 C26.1353659 195.70262219 23.55803708 195.81844125 20.75390625 195.796875 C19.9425975 195.79974518 19.13128876 195.80261536 18.2953949 195.80557251 C16.57802636 195.80761563 14.86063468 195.80206842 13.14331055 195.78955078 C10.51363008 195.77352059 7.8854914 195.78937958 5.25585938 195.80859375 C3.58853827 195.80661095 1.92121813 195.80276652 0.25390625 195.796875 C-0.53366562 195.80294769 -1.32123749 195.80902039 -2.13267517 195.8152771 C-7.49940204 195.74614301 -7.49940204 195.74614301 -9.77027321 194.34391022 C-11.74856535 191.3655527 -11.47537304 188.33910518 -11.44345093 184.88269043 C-11.4481309 184.11045246 -11.45281087 183.33821448 -11.45763266 182.54257536 C-11.46962864 179.94683028 -11.46010767 177.35160867 -11.45068359 174.75585938 C-11.45474726 172.89823599 -11.46008798 171.04061502 -11.46661377 169.18299866 C-11.4803176 164.13142307 -11.47497608 159.08003081 -11.46547651 154.02845192 C-11.45789579 148.74873984 -11.4649211 143.46904374 -11.46963501 138.18933105 C-11.4750972 129.32199273 -11.4678888 120.4547293 -11.45361328 111.58740234 C-11.4372859 101.32688187 -11.44257408 91.06654021 -11.4590925 80.80602407 C-11.47269417 72.00597395 -11.47463348 63.20597774 -11.46677649 54.40592051 C-11.46209272 49.14590428 -11.46149443 43.88597217 -11.47138596 38.6259613 C-11.48003418 33.6814732 -11.47407305 28.73721627 -11.45670319 23.79275322 C-11.45272685 21.97505007 -11.45389189 20.15732756 -11.46049118 18.33963203 C-11.46865167 15.86421772 -11.45845232 13.38955086 -11.44345093 10.91418457 C-11.45014309 10.18958023 -11.45683526 9.46497588 -11.46373022 8.71841383 C-11.42997147 5.85966845 -11.37557608 3.86733791 -9.76354408 1.45296478 C-6.78465833 -0.39373415 -3.39947104 -0.02707186 0 0 Z " fill="#000000" transform="translate(420.0625,224.6015625)"/>
<path d="M0 0 C1.18154663 -0.00430527 1.18154663 -0.00430527 2.38696289 -0.00869751 C4.05127685 -0.01073772 5.71561481 -0.00521082 7.37988281 0.00732422 C9.92827947 0.02337941 12.47509021 0.00747506 15.0234375 -0.01171875 C16.6406285 -0.00973631 18.25781852 -0.00589261 19.875 0 C20.63756104 -0.00607269 21.40012207 -0.01214539 22.18579102 -0.0184021 C27.3764907 0.05065133 27.3764907 0.05065133 29.63854408 1.45296478 C31.62599366 4.42960848 31.35039804 7.45506209 31.31845093 10.91418457 C31.32547089 12.07254153 31.32547089 12.07254153 31.33263266 13.25429964 C31.34462864 15.85004472 31.33510767 18.44526633 31.32568359 21.04101562 C31.32974726 22.89863901 31.33508798 24.75625998 31.34161377 26.61387634 C31.3553176 31.66545193 31.34997608 36.71684419 31.34047651 41.76842308 C31.33289579 47.04813516 31.3399211 52.32783126 31.34463501 57.60754395 C31.3500972 66.47488227 31.3428888 75.3421457 31.32861328 84.20947266 C31.3122859 94.46999313 31.31757408 104.73033479 31.3340925 114.99085093 C31.34769417 123.79090105 31.34963348 132.59089726 31.34177649 141.39095449 C31.33709272 146.65097072 31.33649443 151.91090283 31.34638596 157.1709137 C31.35503418 162.1154018 31.34907305 167.05965873 31.33170319 172.00412178 C31.32772685 173.82182493 31.32889189 175.63954744 31.33549118 177.45724297 C31.34365167 179.93265728 31.33345232 182.40732414 31.31845093 184.88269043 C31.32848918 185.96959695 31.32848918 185.96959695 31.33873022 187.07846117 C31.30502037 189.93306596 31.24896789 191.9295165 29.64527321 194.34391022 C26.60272755 196.22264177 23.0910664 195.82363075 19.62109375 195.796875 C18.40269554 195.80118027 18.40269554 195.80118027 17.15968323 195.80557251 C15.44409487 195.80761271 13.72848323 195.8020859 12.01293945 195.78955078 C9.38114709 195.77347505 6.7508856 195.78941086 4.11914062 195.80859375 C2.4531216 195.80661172 0.78710353 195.80276887 -0.87890625 195.796875 C-1.66850235 195.80294769 -2.45809845 195.80902039 -3.2716217 195.8152771 C-5.48657227 195.78662109 -5.48657227 195.78662109 -9.0625 195.3984375 C-11.48878535 191.75900947 -11.3451308 189.08813876 -11.32319641 184.88269043 C-11.32702196 184.11045246 -11.33084751 183.33821448 -11.33478898 182.54257536 C-11.34513332 179.94693474 -11.34112416 177.35151473 -11.3371582 174.75585938 C-11.34150385 172.89823705 -11.3466865 171.04061651 -11.35264587 169.18299866 C-11.366062 164.13146296 -11.36661171 159.08000196 -11.36408257 154.02845192 C-11.36301478 149.81594662 -11.36789124 145.60345654 -11.372688 141.39095449 C-11.38379191 131.45642558 -11.38421541 121.52193447 -11.37817383 111.58740234 C-11.37213014 101.32688946 -11.38445308 91.06651358 -11.4057439 80.80602407 C-11.42333512 72.00598063 -11.42936524 63.20598089 -11.42610615 54.40592051 C-11.42428942 49.14589624 -11.42696834 43.88596971 -11.44082069 38.6259613 C-11.45335441 33.68148602 -11.4514974 28.73722504 -11.43840981 23.79275322 C-11.43603483 21.97504544 -11.43881143 20.15732278 -11.44703293 18.33963203 C-11.45742454 15.86423078 -11.44946158 13.38955884 -11.4367218 10.91418457 C-11.44409609 10.18958023 -11.45147037 9.46497588 -11.45906812 8.71841383 C-11.42796632 5.85928025 -11.3759123 3.86799352 -9.76396465 1.45296478 C-6.78470786 -0.39350764 -3.3996955 -0.02707364 0 0 Z " fill="#000000" transform="translate(72.0625,224.6015625)"/>
<path d="M0 0 C1.68866464 -0.00782324 1.68866464 -0.00782324 3.41144371 -0.01580453 C5.27459441 -0.00911236 5.27459441 -0.00911236 7.17538452 -0.002285 C8.49073496 -0.00540498 9.8060854 -0.00852497 11.16129494 -0.01173949 C14.82006628 -0.02011484 18.47873374 -0.01594986 22.13750553 -0.00976706 C26.08029458 -0.00525473 30.02306537 -0.01222025 33.96585083 -0.0177269 C41.69283725 -0.02663562 49.4197849 -0.02469232 57.14677286 -0.01890162 C63.42480698 -0.01439094 69.70283021 -0.01376964 75.98086548 -0.01594925 C77.319456 -0.01640895 77.319456 -0.01640895 78.68508875 -0.01687793 C80.49778096 -0.01751736 82.31047317 -0.01816579 84.12316537 -0.01882312 C101.13405133 -0.02453074 118.14491576 -0.01796174 135.1557982 -0.00722238 C149.76243541 0.00171352 164.36904085 0.0001616 178.97567749 -0.00905991 C195.92431601 -0.01975491 212.87293565 -0.02398138 229.82157707 -0.01783538 C231.62772496 -0.01719826 233.43387286 -0.01656952 235.24002075 -0.01594925 C236.57312536 -0.01548642 236.57312536 -0.01548642 237.93316138 -0.01501425 C244.20606604 -0.01328499 250.47895876 -0.01620736 256.75186157 -0.02090836 C264.39297344 -0.02650865 272.03404421 -0.02501874 279.67515135 -0.01434687 C283.57623019 -0.00907864 287.4772404 -0.00705291 291.37831879 -0.01364517 C295.60077325 -0.02067278 299.82305335 -0.01230056 304.04550171 -0.002285 C305.28760218 -0.00674645 306.52970264 -0.01120789 307.80944252 -0.01580453 C308.93521894 -0.01058903 310.06099537 -0.00537354 311.22088623 0 C312.68397752 0.00048706 312.68397752 0.00048706 314.17662621 0.00098395 C316.61044312 0.25168228 316.61044312 0.25168228 319.61044312 2.25168228 C319.88614918 5.16883029 319.98269922 7.84036488 319.92294312 10.75168228 C319.9277771 11.92924088 319.9277771 11.92924088 319.93270874 13.13058853 C319.87748181 18.98464359 319.87748181 18.98464359 317.61044312 21.25168228 C315.28684998 21.50238061 315.28684998 21.50238061 312.30990601 21.50336456 C310.61285271 21.5111878 310.61285271 21.5111878 308.8815155 21.51916909 C307.62803818 21.51470765 306.37456085 21.51024621 305.08309937 21.50564957 C303.74636159 21.50795206 302.40962508 21.51112716 301.07289124 21.51510406 C297.3871271 21.5234898 293.70146591 21.51930976 290.01570129 21.51313162 C286.04564703 21.5086235 282.075611 21.5155827 278.1055603 21.52109146 C270.32329281 21.53000472 262.54106381 21.52805488 254.75879478 21.52226618 C248.43639178 21.51775727 242.1139996 21.51713343 235.79159546 21.51931381 C234.89322684 21.51962028 233.99485823 21.51992674 233.06926632 21.5202425 C231.24449285 21.52088192 229.41971937 21.52153035 227.59494591 21.52218768 C210.46677904 21.52789663 193.33863356 21.52132423 176.2104702 21.51058695 C161.50003379 21.50165092 146.78962895 21.50320281 132.07919312 21.51242447 C115.01410909 21.52311713 97.94904382 21.52734726 80.88395691 21.52119994 C79.06573487 21.52056281 77.24751282 21.51993407 75.42929077 21.51931381 C74.08724028 21.51885099 74.08724028 21.51885099 72.71807766 21.51837881 C66.40013111 21.51664885 60.08219642 21.51957343 53.76425171 21.52427292 C46.06928834 21.52987062 38.37436579 21.5283888 30.67940712 21.51771143 C26.75010556 21.51243969 22.82087217 21.51042338 18.89157104 21.51700974 C15.2992106 21.52294043 11.70698194 21.51974218 8.11463356 21.50905463 C6.18954585 21.50573872 4.2644491 21.51231725 2.33937073 21.51916909 C1.20800186 21.5139536 0.076633 21.5087381 -1.08901978 21.50336456 C-2.07141129 21.50303986 -3.0538028 21.50271515 -4.06596375 21.50238061 C-6.38955688 21.25168228 -6.38955688 21.25168228 -8.38955688 19.25168228 C-8.61463072 16.37541399 -8.71386095 13.62715204 -8.70205688 10.75168228 C-8.71817017 9.96664322 -8.73428345 9.18160416 -8.75088501 8.37277603 C-8.75283813 6.09543228 -8.75283813 6.09543228 -8.38955688 2.25168228 C-5.02504083 0.00867158 -3.93295154 0.00130926 0 0 Z " fill="#000000" transform="translate(100.38955688476563,188.74831771850586)"/>
<path d="M0 0 C0.91656372 -0.00287018 1.83312744 -0.00574036 2.77746582 -0.00869751 C4.70012028 -0.01072355 6.62279605 -0.00529688 8.54541016 0.00732422 C11.46173898 0.02339886 14.37668222 0.00742536 17.29296875 -0.01171875 C19.17448218 -0.00973606 21.05599475 -0.00589185 22.9375 0 C23.79508911 -0.00607269 24.65267822 -0.01214539 25.53625488 -0.0184021 C32.56588722 0.061896 39.92021304 0.94473702 45.53125 5.4609375 C48.58426337 9.57586856 48.56546712 13.40849868 47.96875 18.3984375 C45.23437551 23.63932193 41.33370088 24.69953639 35.96875 26.3984375 C36.58363281 26.62917969 37.19851563 26.85992187 37.83203125 27.09765625 C44.356221 29.73022404 44.356221 29.73022404 47.03125 32.6484375 C48.6415118 37.3718721 48.6415118 41.4250029 47.03125 46.1484375 C43.9569266 49.50224484 40.17362454 50.82050764 35.96875 52.3984375 C36.58363281 52.64078125 37.19851563 52.883125 37.83203125 53.1328125 C41.16916515 54.51663198 44.22404123 55.78913033 47.03125 58.0859375 C48.77546248 62.38832829 48.70615732 67.14090001 47.26953125 71.5390625 C45.49359316 74.07764066 43.73264339 74.61139885 40.84375 75.6484375 C39.47863281 76.15117187 39.47863281 76.15117187 38.0859375 76.6640625 C37.03792969 77.02757812 37.03792969 77.02757812 35.96875 77.3984375 C37.01675781 77.87023437 37.01675781 77.87023437 38.0859375 78.3515625 C38.99601562 78.77953125 39.90609375 79.2075 40.84375 79.6484375 C41.74867188 80.06609375 42.65359375 80.48375 43.5859375 80.9140625 C46.23096075 82.5617819 46.98567807 83.48217385 47.96875 86.3984375 C48.28990439 90.44498281 48.31739371 93.30270012 47.09375 97.1484375 C42.64503724 101.85883924 36.01717099 103.57781109 29.67773438 103.91601562 C27.80616449 103.94200619 25.93418165 103.94572296 24.0625 103.9296875 C22.55447815 103.93542786 22.55447815 103.93542786 21.01599121 103.94128418 C18.90501902 103.94398814 16.79401244 103.93673412 14.68310547 103.91992188 C11.47676942 103.8984911 8.27267373 103.91977629 5.06640625 103.9453125 C3.00259929 103.94266896 0.9387937 103.93754343 -1.125 103.9296875 C-2.54262634 103.94183289 -2.54262634 103.94183289 -3.9888916 103.95422363 C-10.50786983 103.86369432 -16.35810731 102.77180921 -22.03125 99.3984375 C-25.40390024 95.57140164 -25.60694515 92.79716507 -25.4453125 87.80859375 C-25.03125 85.3984375 -25.03125 85.3984375 -22.90625 82.3984375 C-19.97660862 80.3604261 -17.47662539 79.2798126 -14.03125 78.3984375 C-16.04110512 76.13161932 -16.04110512 76.13161932 -19.53125 74.9609375 C-23.03125 73.3984375 -23.03125 73.3984375 -25.03125 70.3984375 C-25.64869481 65.69580548 -26.01506047 61.03812161 -23.53125 56.8984375 C-20.14590799 54.86723229 -16.77893633 53.64766628 -13.03125 52.3984375 C-13.64613281 52.15609375 -14.26101563 51.91375 -14.89453125 51.6640625 C-15.70277344 51.32890625 -16.51101563 50.99375 -17.34375 50.6484375 C-18.14425781 50.32359375 -18.94476563 49.99875 -19.76953125 49.6640625 C-22.39120032 48.19701452 -23.54773747 47.00397374 -25.03125 44.3984375 C-25.86844384 39.75993109 -25.67969715 35.66831316 -23.53125 31.4609375 C-20.20463148 28.71647722 -17.1373932 27.69871618 -13.03125 26.3984375 C-13.72992188 26.15609375 -14.42859375 25.91375 -15.1484375 25.6640625 C-16.51355469 25.16132812 -16.51355469 25.16132812 -17.90625 24.6484375 C-18.81117188 24.32359375 -19.71609375 23.99875 -20.6484375 23.6640625 C-23.43899266 22.18186599 -24.06305073 21.36722533 -25.03125 18.3984375 C-25.78292229 13.53234848 -25.83956218 9.66479325 -23.15625 5.4609375 C-16.08430235 0.79345205 -8.30130072 -0.05878252 0 0 Z " fill="#000000" transform="translate(347.03125,65.6015625)"/>
<path d="M0 0 C1.23278687 -0.01925285 1.23278687 -0.01925285 2.49047852 -0.03889465 C3.81390259 -0.04997505 3.81390259 -0.04997505 5.1640625 -0.0612793 C6.08437256 -0.06935104 7.00468262 -0.07742279 7.95288086 -0.08573914 C9.90297576 -0.0995609 11.85309466 -0.11029157 13.80322266 -0.11816406 C15.77953274 -0.12963733 17.75581298 -0.15001454 19.73193359 -0.1796875 C42.75187338 -0.52508308 42.75187338 -0.52508308 50.7890625 4.17700195 C53.52893927 7.23890735 54.18297068 9.06901999 54.1015625 13.17700195 C54.09769531 14.02262695 54.09382813 14.86825195 54.08984375 15.73950195 C53.75826494 18.4265822 53.36099244 19.96780311 51.7890625 22.17700195 C49.40625 23.44262695 49.40625 23.44262695 46.6640625 24.42700195 C45.75398438 24.7621582 44.84390625 25.09731445 43.90625 25.44262695 C43.20757812 25.6849707 42.50890625 25.92731445 41.7890625 26.17700195 C42.40394531 26.4193457 43.01882812 26.66168945 43.65234375 26.91137695 C44.86470703 27.41411133 44.86470703 27.41411133 46.1015625 27.92700195 C46.90207031 28.2518457 47.70257813 28.57668945 48.52734375 28.91137695 C51.14865027 30.37822205 52.30237172 31.57412063 53.7890625 34.17700195 C54.45338197 37.58163925 54.37135737 40.76087205 53.7890625 44.17700195 C50.61490496 48.69777178 46.80879764 50.30690455 41.7890625 52.17700195 C42.83707031 52.55791992 42.83707031 52.55791992 43.90625 52.9465332 C44.81632812 53.29071289 45.72640625 53.63489258 46.6640625 53.98950195 C47.56898438 54.32594727 48.47390625 54.66239258 49.40625 55.0090332 C51.7890625 56.17700195 51.7890625 56.17700195 53.7890625 59.17700195 C54.56573469 64.45837284 54.75569266 68.78391731 51.6640625 73.23950195 C48.73691044 75.21214791 46.19908484 76.30467066 42.7890625 77.17700195 C45.71423327 79.23443152 45.71423327 79.23443152 48.8515625 80.61450195 C51.7890625 82.17700195 51.7890625 82.17700195 53.7890625 85.17700195 C54.46459227 89.81145037 54.42187863 93.88385595 52.3515625 98.11450195 C45.85881318 103.34037336 38.0100928 103.635402 29.98046875 103.6105957 C28.9737059 103.61583755 27.96694305 103.62107941 26.92967224 103.6264801 C24.8127433 103.63286791 22.6957787 103.63160564 20.57885742 103.62304688 C17.3637697 103.61453427 14.1504598 103.64334939 10.93554688 103.67504883 C8.86718803 103.67666122 6.79882607 103.67608258 4.73046875 103.6730957 C3.78224747 103.68432968 2.83402618 103.69556366 1.85707092 103.70713806 C-4.78412979 103.63876364 -10.32426597 102.33147438 -16.2109375 99.17700195 C-18.92169382 96.30678938 -19.38466031 94.00126851 -19.5859375 90.17700195 C-19.39296591 86.37474685 -18.85638016 84.06293941 -16.2109375 81.17700195 C-13.2961648 79.60075076 -10.31124792 78.34043081 -7.2109375 77.17700195 C-8.25894531 76.81348633 -8.25894531 76.81348633 -9.328125 76.44262695 C-10.23820312 76.1074707 -11.14828125 75.77231445 -12.0859375 75.42700195 C-12.99085937 75.1021582 -13.89578125 74.77731445 -14.828125 74.44262695 C-17.607161 72.96654882 -18.23944308 72.12926555 -19.2109375 69.17700195 C-19.88467248 64.79772456 -19.77278629 61.2538788 -17.7109375 57.30200195 C-14.39130316 54.48031277 -11.3572525 53.4900017 -7.2109375 52.17700195 C-8.25894531 51.70520508 -8.25894531 51.70520508 -9.328125 51.22387695 C-10.23820312 50.7959082 -11.14828125 50.36793945 -12.0859375 49.92700195 C-12.99085937 49.5093457 -13.89578125 49.09168945 -14.828125 48.66137695 C-17.47314825 47.01365755 -18.22786557 46.0932656 -19.2109375 43.17700195 C-19.53482264 39.09604923 -19.58724519 36.28083784 -18.2734375 32.42700195 C-15.1991141 29.07319461 -11.41581204 27.75493181 -7.2109375 26.17700195 C-8.13326172 25.81348633 -8.13326172 25.81348633 -9.07421875 25.44262695 C-12.41135265 24.05880747 -15.46622873 22.78630913 -18.2734375 20.48950195 C-20.01470697 16.1943706 -19.98520878 11.40252515 -18.46484375 7.0324707 C-16.86703428 4.66811089 -15.46204703 4.05826746 -12.8359375 2.98950195 C-12.06507812 2.66594727 -11.29421875 2.34239258 -10.5 2.0090332 C-6.94747803 0.71775815 -3.78302069 0.05180877 0 0 Z " fill="#000000" transform="translate(136.2109375,65.822998046875)"/>
<path d="M0 0 C1.40670456 -0.00786278 1.40670456 -0.00786278 2.84182739 -0.0158844 C4.81332414 -0.02226879 6.78485917 -0.02101443 8.75634766 -0.01245117 C11.74321593 -0.00394781 14.728164 -0.0327427 17.71484375 -0.06445312 C39.41799455 -0.14540965 39.41799455 -0.14540965 46.62695312 5.89501953 C48.56836151 8.27347125 48.28014403 10.36005877 48.2578125 13.37109375 C48.26941406 14.93150391 48.26941406 14.93150391 48.28125 16.5234375 C47.83112745 19.8110973 47.24156685 21.12690903 44.8828125 23.43359375 C42.62109375 24.48046875 42.62109375 24.48046875 40.1953125 25.18359375 C39.38707031 25.4259375 38.57882812 25.66828125 37.74609375 25.91796875 C37.13121094 26.088125 36.51632812 26.25828125 35.8828125 26.43359375 C36.93082031 26.81451172 36.93082031 26.81451172 38 27.203125 C38.91007812 27.54730469 39.82015625 27.89148438 40.7578125 28.24609375 C42.11519531 28.75076172 42.11519531 28.75076172 43.5 29.265625 C45.8828125 30.43359375 45.8828125 30.43359375 47.8828125 33.43359375 C48.21875 36.2109375 48.21875 36.2109375 48.2578125 39.37109375 C48.28617187 40.41136719 48.31453125 41.45164063 48.34375 42.5234375 C47.77112795 46.1387208 46.73022354 47.20496638 43.8828125 49.43359375 C41.60170082 50.67615052 39.31807007 51.49695622 36.8828125 52.43359375 C37.50929688 52.68753906 38.13578125 52.94148438 38.78125 53.203125 C39.59851563 53.54730469 40.41578125 53.89148438 41.2578125 54.24609375 C42.06992187 54.58253906 42.88203125 54.91898438 43.71875 55.265625 C45.8828125 56.43359375 45.8828125 56.43359375 47.8828125 59.43359375 C48.42355525 63.48062632 48.42579146 67.38644131 47.8828125 71.43359375 C44.89756768 75.12124912 41.38945552 76.17592593 36.8828125 77.43359375 C37.42550781 77.68753906 37.96820313 77.94148438 38.52734375 78.203125 C39.60048828 78.71939453 39.60048828 78.71939453 40.6953125 79.24609375 C41.40300781 79.58253906 42.11070312 79.91898437 42.83984375 80.265625 C45.02079845 81.51248056 46.39825532 82.39920058 47.8828125 84.43359375 C48.31640625 87.2109375 48.31640625 87.2109375 48.3203125 90.37109375 C48.33964844 91.41136719 48.35898437 92.45164062 48.37890625 93.5234375 C47.74532961 97.24008788 46.91670637 98.2144897 43.8828125 100.43359375 C37.43001518 103.38157683 31.9972679 103.88834729 24.953125 103.8671875 C23.40756424 103.87505028 23.40756424 103.87505028 21.83078003 103.8830719 C19.66079607 103.88946767 17.49077733 103.88818697 15.32080078 103.87963867 C12.02442824 103.87113661 8.72979521 103.89991327 5.43359375 103.93164062 C3.31510468 103.93325324 1.19661258 103.93267396 -0.921875 103.9296875 C-1.89510712 103.94092148 -2.86833923 103.95215546 -3.87106323 103.96372986 C-10.49980308 103.8971817 -16.31241614 102.79095353 -22.1171875 99.43359375 C-24.39666448 96.01437828 -24.44231855 94.53049198 -24.4921875 90.49609375 C-24.52054688 89.45582031 -24.54890625 88.41554688 -24.578125 87.34375 C-24.00550295 83.7284667 -22.96459854 82.66222112 -20.1171875 80.43359375 C-17.83607582 79.19103698 -15.55244507 78.37023128 -13.1171875 77.43359375 C-13.74367187 77.16804688 -14.37015625 76.9025 -15.015625 76.62890625 C-15.83289063 76.27570313 -16.65015625 75.9225 -17.4921875 75.55859375 C-18.30429688 75.21054688 -19.11640625 74.8625 -19.953125 74.50390625 C-22.1171875 73.43359375 -22.1171875 73.43359375 -24.1171875 71.43359375 C-24.48828125 68.53515625 -24.48828125 68.53515625 -24.5546875 65.05859375 C-24.59464844 63.91648438 -24.63460937 62.774375 -24.67578125 61.59765625 C-24.1171875 58.43359375 -24.1171875 58.43359375 -21.796875 56.09765625 C-18.96587511 54.33963008 -16.31940718 53.32723645 -13.1171875 52.43359375 C-13.65988281 52.17964844 -14.20257813 51.92570312 -14.76171875 51.6640625 C-15.47714844 51.31988281 -16.19257813 50.97570312 -16.9296875 50.62109375 C-17.63738281 50.28464844 -18.34507812 49.94820312 -19.07421875 49.6015625 C-21.25517345 48.35470694 -22.63263032 47.46798692 -24.1171875 45.43359375 C-24.55078125 42.65625 -24.55078125 42.65625 -24.5546875 39.49609375 C-24.57402344 38.45582031 -24.59335938 37.41554687 -24.61328125 36.34375 C-23.99819384 32.73556009 -22.98238667 31.64874773 -20.1171875 29.43359375 C-17.50349925 28.15536665 -14.88951487 27.35770287 -12.1171875 26.43359375 C-13.16519531 26.05267578 -13.16519531 26.05267578 -14.234375 25.6640625 C-15.14445313 25.31988281 -16.05453125 24.97570312 -16.9921875 24.62109375 C-17.89710938 24.28464844 -18.80203125 23.94820312 -19.734375 23.6015625 C-22.1171875 22.43359375 -22.1171875 22.43359375 -24.1171875 19.43359375 C-24.80728745 14.26874047 -25.41091388 9.14465122 -22.1796875 4.87109375 C-14.74249359 1.380166 -8.20639858 -0.02732997 0 0 Z " fill="#000000" transform="translate(244.1171875,65.56640625)"/>
<path d="M0 0 C0.99 0 1.98 0 3 0 C2.49637834 8.98567062 1.75071853 17.89755024 0.66064453 26.83154297 C-0.10442936 32.9035741 -0.10442936 32.9035741 0 39 C3.58422296 41.38948197 5.37232596 41.30233168 9.63671875 41.4140625 C10.93544922 41.45273437 12.23417969 41.49140625 13.57226562 41.53125 C14.94400573 41.56270517 16.31575061 41.59395251 17.6875 41.625 C19.07098785 41.66319197 20.45445223 41.70224442 21.83789062 41.7421875 C25.2251245 41.83660517 28.61235069 41.92218118 32 42 C32.92338787 44.49925083 33.11791609 45.67234703 32.20239258 48.21630859 C31.77079834 49.01891113 31.3392041 49.82151367 30.89453125 50.6484375 C30.17040039 52.01548828 30.17040039 52.01548828 29.43164062 53.41015625 C28.89732422 54.38855469 28.36300781 55.36695313 27.8125 56.375 C27.26658203 57.39722656 26.72066406 58.41945313 26.15820312 59.47265625 C24.45284253 62.65625709 22.72951696 65.82946591 21 69 C20.48614746 69.94391602 19.97229492 70.88783203 19.44287109 71.86035156 C17.4756504 75.47067421 15.50761037 79.08036986 13.52075195 82.67993164 C10.8327951 87.56460261 8.23035835 92.47908881 5.71875 97.45703125 C5.17992187 98.51857422 4.64109375 99.58011719 4.0859375 100.67382812 C3.04808747 102.7277998 2.02155961 104.78754148 1.0078125 106.85351562 C0.54117188 107.77455078 0.07453125 108.69558594 -0.40625 109.64453125 C-0.81166016 110.46284424 -1.21707031 111.28115723 -1.63476562 112.12426758 C-3 114 -3 114 -5.16210938 114.7722168 C-5.76861328 114.84738525 -6.37511719 114.92255371 -7 115 C-6.49755786 106.03537448 -5.77175543 97.1568517 -4.57275391 88.25634766 C-4.00141185 83.6471055 -3.97056591 79.5910394 -5 75 C-7.84535725 73.57732138 -10.36218552 73.78028131 -13.5390625 73.68359375 C-14.84101563 73.64169922 -16.14296875 73.59980469 -17.484375 73.55664062 C-18.86458045 73.51682701 -20.24478883 73.47711478 -21.625 73.4375 C-23.01303415 73.39430593 -24.40105528 73.35069135 -25.7890625 73.30664062 C-29.19260256 73.20028 -32.59621778 73.09825286 -36 73 C-36.70703125 71.42773438 -36.70703125 71.42773438 -37 69 C-35.99690087 66.58563377 -34.94743697 64.43093052 -33.6875 62.15625 C-33.14665268 61.14574333 -33.14665268 61.14574333 -32.59487915 60.11482239 C-31.40791421 57.90356376 -30.20412957 55.70195141 -29 53.5 C-28.17643676 51.97351212 -27.35401808 50.4464062 -26.53271484 48.91870117 C-24.8531118 45.79840997 -23.16704153 42.68175256 -21.47558594 39.56787109 C-19.16540308 35.31172137 -16.8786849 31.04344272 -14.6015625 26.76953125 C-13.92190052 25.49477806 -13.24221364 24.22003814 -12.5625 22.9453125 C-12.23894531 22.33848633 -11.91539062 21.73166016 -11.58203125 21.10644531 C-3.95219318 6.80439171 -3.95219318 6.80439171 0 0 Z " fill="#000000" transform="translate(258,265)"/>
<path d="M0 0 C1.13450089 -0.00622879 2.26900177 -0.01245758 3.43788147 -0.01887512 C4.66292892 -0.00966537 5.88797638 -0.00045563 7.15014648 0.0090332 C8.40633286 0.0085347 9.66251923 0.00803619 10.95677185 0.00752258 C13.61423297 0.00986494 16.27089953 0.01802964 18.92822266 0.03613281 C22.33703864 0.05884332 25.74541172 0.05935944 29.15428257 0.05261517 C32.40293738 0.04847442 35.65151321 0.06044296 38.90014648 0.0715332 C40.12721817 0.0706218 41.35428986 0.06971039 42.61854553 0.06877136 C43.74989426 0.07830338 44.88124298 0.08783539 46.046875 0.09765625 C47.04598404 0.10226364 48.04509308 0.10687103 49.07447815 0.11161804 C51.45874023 0.37231445 51.45874023 0.37231445 53.45874023 2.37231445 C53.7175293 4.5871582 53.7175293 4.5871582 53.72436523 7.30981445 C53.72823242 8.77547852 53.72823242 8.77547852 53.73217773 10.27075195 C53.72444336 11.29426758 53.71670898 12.3177832 53.70874023 13.37231445 C53.7203418 14.90758789 53.7203418 14.90758789 53.73217773 16.47387695 C53.72959961 17.45098633 53.72702148 18.4280957 53.72436523 19.43481445 C53.72210938 20.33329102 53.71985352 21.23176758 53.7175293 22.1574707 C53.45874023 24.37231445 53.45874023 24.37231445 51.45874023 26.37231445 C49.02978516 26.63301086 49.02978516 26.63301086 45.93920898 26.64697266 C44.78461182 26.65650467 43.63001465 26.66603668 42.44042969 26.67585754 C41.18834717 26.67494614 39.93626465 26.67403473 38.64624023 26.6730957 C36.72654419 26.67952339 36.72654419 26.67952339 34.76806641 26.68608093 C32.05781923 26.69354687 29.34770232 26.69324899 26.63745117 26.68798828 C23.160148 26.68218905 19.68337668 26.69913295 16.2061615 26.72233295 C12.89449817 26.74058426 9.58295368 26.73688568 6.27124023 26.7355957 C5.01915771 26.74480545 3.7670752 26.7540152 2.47705078 26.76350403 C0.74515503 26.75416084 0.74515503 26.75416084 -1.02172852 26.74462891 C-2.04161865 26.74525833 -3.06150879 26.74588776 -4.11230469 26.74653625 C-4.91385986 26.62304306 -5.71541504 26.49954987 -6.54125977 26.37231445 C-9.38925793 22.1003172 -8.87144292 18.3943316 -8.85375977 13.37231445 C-8.86987305 12.45708008 -8.88598633 11.5418457 -8.90258789 10.59887695 C-8.90323242 9.71973633 -8.90387695 8.8405957 -8.90454102 7.93481445 C-8.90752197 7.13172852 -8.91050293 6.32864258 -8.91357422 5.5012207 C-8.02018796 0.39280878 -4.62870157 -0.0029137 0 0 Z " fill="#000000" transform="translate(325.541259765625,439.627685546875)"/>
<path d="M0 0 C1.13134872 -0.00953201 2.26269745 -0.01906403 3.42832947 -0.02888489 C4.65540115 -0.02797348 5.88247284 -0.02706207 7.14672852 -0.02612305 C8.40195816 -0.03040817 9.65718781 -0.0346933 10.95045471 -0.03910828 C13.60952683 -0.04486078 16.26821194 -0.04627639 18.92724609 -0.04101562 C22.33495313 -0.03522228 25.74211642 -0.05214571 29.14973354 -0.0753603 C32.39872799 -0.09363528 35.6476919 -0.08991239 38.89672852 -0.08862305 C40.7342997 -0.10243767 40.7342997 -0.10243767 42.60899353 -0.11653137 C43.74349442 -0.11030258 44.8779953 -0.10407379 46.046875 -0.09765625 C47.04677963 -0.09828568 48.04668427 -0.0989151 49.07688904 -0.0995636 C51.58813477 0.2746582 51.58813477 0.2746582 53.41119385 1.66487122 C54.97983546 3.8104155 54.96122295 5.19511705 54.95141602 7.8371582 C54.95077148 8.71629883 54.95012695 9.59543945 54.94946289 10.5012207 C54.93334961 11.41645508 54.91723633 12.33168945 54.90063477 13.2746582 C54.90385742 14.18989258 54.90708008 15.10512695 54.91040039 16.0480957 C54.85535415 22.87382912 54.85535415 22.87382912 52.58813477 26.2746582 C50.15917969 26.64888 50.15917969 26.64888 47.06860352 26.64697266 C45.91400635 26.65320145 44.75940918 26.65943024 43.56982422 26.66584778 C42.3177417 26.65663803 41.06565918 26.64742828 39.77563477 26.63793945 C38.4958374 26.63843796 37.21604004 26.63893646 35.89746094 26.63945007 C33.18713624 26.63936031 30.47710875 26.62892274 27.7668457 26.61083984 C24.28962222 26.58815213 20.81283315 26.58760796 17.33555603 26.59435749 C14.02386583 26.59849904 10.71230998 26.58652788 7.40063477 26.57543945 C6.14855225 26.57635086 4.89646973 26.57726227 3.60644531 26.57820129 C2.45184814 26.56866928 1.29725098 26.55913727 0.10766602 26.54931641 C-0.91222412 26.54470901 -1.93211426 26.54010162 -2.98291016 26.53535461 C-5.41186523 26.2746582 -5.41186523 26.2746582 -7.41186523 24.2746582 C-7.6706543 22.05981445 -7.6706543 22.05981445 -7.67749023 19.3371582 C-7.68006836 18.36004883 -7.68264648 17.38293945 -7.68530273 16.3762207 C-7.67756836 15.35270508 -7.66983398 14.32918945 -7.66186523 13.2746582 C-7.66959961 12.25114258 -7.67733398 11.22762695 -7.68530273 10.1730957 C-7.68272461 9.19598633 -7.68014648 8.21887695 -7.67749023 7.2121582 C-7.67523438 6.31368164 -7.67297852 5.41520508 -7.6706543 4.48950195 C-7.11069765 -0.30288169 -4.06437156 0.01874285 0 0 Z " fill="#000000" transform="translate(140.411865234375,439.725341796875)"/>
<path d="M0 0 C1.34771484 -0.04930664 1.34771484 -0.04930664 2.72265625 -0.09960938 C7.36660895 -0.1373372 9.43432023 -0.10291738 13.1953125 2.83984375 C16.01559211 6.63637399 16.51249234 8.69071887 16.125 13.4375 C14.9765625 15.10400391 14.9765625 15.10400391 13.125 16.4375 C10.4453125 16.82568359 10.4453125 16.82568359 7.25 16.8359375 C6.10015625 16.83980469 4.9503125 16.84367187 3.765625 16.84765625 C2.56421875 16.83605469 1.3628125 16.82445313 0.125 16.8125 C-1.07640625 16.82410156 -2.2778125 16.83570312 -3.515625 16.84765625 C-5.24039063 16.84185547 -5.24039063 16.84185547 -7 16.8359375 C-8.05445313 16.83255371 -9.10890625 16.82916992 -10.1953125 16.82568359 C-12.875 16.4375 -12.875 16.4375 -14.71875 15.09228516 C-16.54103889 12.48428809 -16.2469001 10.53666746 -15.875 7.4375 C-12.25107128 -0.1554935 -7.56856395 0.04844742 0 0 Z " fill="#000000" transform="translate(255.875,45.5625)"/>
<path d="M0 0 C1.28293945 -0.04350586 1.28293945 -0.04350586 2.59179688 -0.08789062 C6.81139332 -0.13038075 9.07274817 -0.07024023 12.73046875 2.20703125 C15.33428554 5.00834312 15.65470624 5.86158573 15.9375 9.75 C15.6875 13.3125 15.6875 13.3125 14.52539062 15.01245117 C11.96613243 16.82276598 10.14788728 16.68495658 7.03125 16.67578125 C5.37416016 16.67481445 5.37416016 16.67481445 3.68359375 16.67382812 C1.95302734 16.6496582 1.95302734 16.6496582 0.1875 16.625 C-0.96621094 16.62822266 -2.11992187 16.63144531 -3.30859375 16.63476562 C-11.9119224 16.57955173 -11.9119224 16.57955173 -15.3125 14.3125 C-15.85589321 9.57721634 -16.01756185 7.4170969 -13.4375 3.375 C-9.35879585 -0.58374227 -5.41836477 0.06042786 0 0 Z " fill="#000000" transform="translate(358.3125,45.6875)"/>
<path d="M0 0 C1.28293945 -0.04350586 1.28293945 -0.04350586 2.59179688 -0.08789062 C6.81139332 -0.13038075 9.07274817 -0.07024023 12.73046875 2.20703125 C15.32835681 5.00196471 15.85531754 6.58689505 15.9375 10.3125 C15.96328125 11.01375 15.9890625 11.715 16.015625 12.4375 C15.90734375 13.05625 15.7990625 13.675 15.6875 14.3125 C10.91550148 17.49383234 5.79702168 16.64066905 0.1875 16.625 C-0.96621094 16.64111328 -2.11992187 16.65722656 -3.30859375 16.67382812 C-4.41332031 16.67447266 -5.51804688 16.67511719 -6.65625 16.67578125 C-7.66880859 16.67876221 -8.68136719 16.68174316 -9.72460938 16.68481445 C-12.3125 16.3125 -12.3125 16.3125 -14.13867188 15.00073242 C-16.14601842 12.1137105 -15.72206251 9.70601795 -15.3125 6.3125 C-11.00357509 -0.29451819 -7.30103877 0.08142422 0 0 Z " fill="#000000" transform="translate(153.3125,45.6875)"/>
<path d="M0 0 C1.31419922 -0.020625 2.62839844 -0.04125 3.98242188 -0.0625 C5.23474609 -0.06765625 6.48707031 -0.0728125 7.77734375 -0.078125 C8.93355225 -0.0874707 10.08976074 -0.09681641 11.28100586 -0.10644531 C12.19889893 0.01118164 13.11679199 0.12880859 14.0625 0.25 C16.0625 3.25 16.0625 3.25 15.875 6.3125 C15.0625 9.25 15.0625 9.25 12.0625 11.25 C8.0985168 11.71433114 4.11326456 11.62033263 0.125 11.625 C-0.97263672 11.64949219 -2.07027344 11.67398438 -3.20117188 11.69921875 C-4.78575195 11.70501953 -4.78575195 11.70501953 -6.40234375 11.7109375 C-7.367771 11.71915527 -8.33319824 11.72737305 -9.32788086 11.73583984 C-12.68847382 11.11018918 -13.89603672 9.94787551 -15.9375 7.25 C-15.35184598 -2.70611831 -8.26722717 0.03234123 0 0 Z " fill="#000000" transform="translate(255.9375,173.75)"/>
<path d="M0 0 C1.20269531 -0.00257813 2.40539062 -0.00515625 3.64453125 -0.0078125 C4.90652344 -0.00007812 6.16851562 0.00765625 7.46875 0.015625 C8.73074219 0.00789062 9.99273437 0.00015625 11.29296875 -0.0078125 C12.49566406 -0.00523437 13.69835937 -0.00265625 14.9375 0 C16.04544922 0.00225586 17.15339844 0.00451172 18.29492188 0.00683594 C20.96875 0.265625 20.96875 0.265625 22.96875 2.265625 C23.52270964 7.47284565 23.52270964 7.47284565 21.80273438 9.93432617 C19.24890603 11.78816349 17.4483766 11.63813822 14.3125 11.62890625 C12.65541016 11.62793945 12.65541016 11.62793945 10.96484375 11.62695312 C9.23427734 11.6027832 9.23427734 11.6027832 7.46875 11.578125 C6.31503906 11.58134766 5.16132813 11.58457031 3.97265625 11.58789062 C-4.6306724 11.53267673 -4.6306724 11.53267673 -8.03125 9.265625 C-8.34375 5.765625 -8.34375 5.765625 -8.03125 2.265625 C-5.30890398 -0.45672102 -3.80362127 0.00774443 0 0 Z " fill="#000000" transform="translate(351.03125,173.734375)"/>
<path d="M0 0 C1.20269531 -0.00257813 2.40539062 -0.00515625 3.64453125 -0.0078125 C4.90652344 -0.00007812 6.16851562 0.00765625 7.46875 0.015625 C8.73074219 0.00789062 9.99273437 0.00015625 11.29296875 -0.0078125 C12.49566406 -0.00523437 13.69835937 -0.00265625 14.9375 0 C16.04544922 0.00225586 17.15339844 0.00451172 18.29492188 0.00683594 C20.96875 0.265625 20.96875 0.265625 22.96875 2.265625 C23.28125 5.765625 23.28125 5.765625 22.96875 9.265625 C18.19675148 12.44695734 13.07827168 11.59379405 7.46875 11.578125 C6.31503906 11.59423828 5.16132813 11.61035156 3.97265625 11.62695312 C2.86792969 11.62759766 1.76320312 11.62824219 0.625 11.62890625 C-0.38755859 11.63188721 -1.40011719 11.63486816 -2.44335938 11.63793945 C-5.03125 11.265625 -5.03125 11.265625 -6.86523438 9.93432617 C-8.65413797 7.37420136 -8.35355019 5.29524677 -8.03125 2.265625 C-5.30890398 -0.45672102 -3.80362127 0.00774443 0 0 Z " fill="#000000" transform="translate(146.03125,173.734375)"/>
</svg>
